ffmpeg started on 2025-06-30 at 14:48:28
Report written to "D:\Convert\FFMetrics\reports\ssim_report-6.txt"
Log level: 32
Command line:
ffmpeg -hide_banner -nostdin -i "G:\\\xc0\xed\xe8\xec\xe5\\\xce\xed\xe3\xee\xe8\xed\xe3\xe8\\!_37_\xc7\xe8\xec\xe0_2025\\JamClub\\\xc3\xee\xf1\xef\xee\xe4\xe8\xed \xe8 \xef\xb8\xf1\\JamClub_Tono_to_Inu_Woof_Woof!_S01E24_1080p_HEVC.mkv" -i "G:\\\xc0\xed\xe8\xec\xe5\\\xce\xed\xe3\xee\xe8\xed\xe3\xe8\\!_37_\xc7\xe8\xec\xe0_2025\\JamClub\\\xc3\xee\xf1\xef\xee\xe4\xe8\xed \xe8 \xef\xb8\xf1\\JamClub_Tono_to_Inu_Woof_Woof!_S01E24_1080p.mp4" -lavfi "[0:v]settb=AVTB,setpts=PTS-STARTPTS,format=pix_fmts=yuv420p10,fps=24000/1001,scale=1920:1080:flags=bicubic[main];[1:v]settb=AVTB,setpts=PTS-STARTPTS,format=pix_fmts=yuv420p,fps=24000/1001,scale=1920:1080:flags=bicubic[ref];[main][ref]ssim=eof_action=endall:stats_file='D\\:/Convert/FFMetrics/logs/ssim_logfile-6.txt'" -f null -
Input #0, matroska,webm, from 'G:\Аниме\Онгоинги\!_37_Зима_2025\JamClub\Господин и пёс\JamClub_Tono_to_Inu_Woof_Woof!_S01E24_1080p_HEVC.mkv':
  Metadata:
    COMPATIBLE_BRANDS: isomiso2avc1mp41
    MAJOR_BRAND     : isom
    MINOR_VERSION   : 512
    ENCODER         : Lavf61.7.100
  Duration: 00:02:55.38, start: -0.021000, bitrate: 1648 kb/s
  Stream #0:0: Video: hevc (Main 10), yuv420p10le(tv, bt709, progressive), 1920x1080 [SAR 1:1 DAR 16:9], 23.98 fps, 23.98 tbr, 1k tbn (default)
      Metadata:
        HANDLER_NAME    : VideoHandler
        VENDOR_ID       : [0][0][0][0]
        ENCODER         : Lavc61.19.100 libx265
        BPS             : 1451839
        DURATION        : 00:02:55.216708333
        NUMBER_OF_FRAMES: 4201
        NUMBER_OF_BYTES : 31798188
        _STATISTICS_WRITING_APP: mkvpropedit v66.0.0 ('Josie') 64-bit
        _STATISTICS_WRITING_DATE_UTC: 2025-06-30 08:16:22
        _STATISTICS_TAGS: BPS DURATION NUMBER_OF_FRAMES NUMBER_OF_BYTES
  Stream #0:1: Audio: aac (LC), 48000 Hz, stereo, fltp (default)
      Metadata:
        HANDLER_NAME    : SoundHandler
        VENDOR_ID       : [0][0][0][0]
        ENCODER         : Lavc61.19.100 aac
        BPS             : 194128
        DURATION        : 00:02:55.360000000
        NUMBER_OF_FRAMES: 8221
        NUMBER_OF_BYTES : 4255306
        _STATISTICS_WRITING_APP: mkvpropedit v66.0.0 ('Josie') 64-bit
        _STATISTICS_WRITING_DATE_UTC: 2025-06-30 08:16:22
        _STATISTICS_TAGS: BPS DURATION NUMBER_OF_FRAMES NUMBER_OF_BYTES
Input #1, mov,mp4,m4a,3gp,3g2,mj2, from 'G:\Аниме\Онгоинги\!_37_Зима_2025\JamClub\Господин и пёс\JamClub_Tono_to_Inu_Woof_Woof!_S01E24_1080p.mp4':
  Metadata:
    major_brand     : isom
    minor_version   : 512
    compatible_brands: isomiso2avc1mp41
    encoder         : Lavf60.16.100
  Duration: 00:02:55.36, start: 0.000000, bitrate: 3650 kb/s
  Stream #1:0[0x1](und): Video: h264 (High) (avc1 / 0x31637661), yuv420p(tv, bt709, progressive), 1920x1080 [SAR 1:1 DAR 16:9], 3455 kb/s, 23.98 fps, 23.98 tbr, 90k tbn (default)
      Metadata:
        handler_name    : VideoHandler
        vendor_id       : [0][0][0][0]
  Stream #1:1[0x2](und): Audio: aac (LC) (mp4a / 0x6134706D), 48000 Hz, stereo, fltp, 192 kb/s (default)
      Metadata:
        handler_name    : SoundHandler
        vendor_id       : [0][0][0][0]
Stream mapping:
  Stream #0:0 (hevc) -> settb:default
  Stream #1:0 (h264) -> settb:default
  ssim:default -> Stream #0:0 (wrapped_avframe)
  Stream #0:1 -> #0:1 (aac (native) -> pcm_s16le (native))
Output #0, null, to 'pipe:':
  Metadata:
    COMPATIBLE_BRANDS: isomiso2avc1mp41
    MAJOR_BRAND     : isom
    MINOR_VERSION   : 512
    encoder         : Lavf61.7.100
  Stream #0:0: Video: wrapped_avframe, yuv420p10le(tv, bt709, progressive), 1920x1080 [SAR 1:1 DAR 16:9], q=2-31, 200 kb/s, 23.98 fps, 23.98 tbn
      Metadata:
        encoder         : Lavc61.19.100 wrapped_avframe
  Stream #0:1: Audio: pcm_s16le, 48000 Hz, stereo, s16, 1536 kb/s (default)
      Metadata:
        HANDLER_NAME    : SoundHandler
        VENDOR_ID       : [0][0][0][0]
        _STATISTICS_TAGS: BPS DURATION NUMBER_OF_FRAMES NUMBER_OF_BYTES
        BPS             : 194128
        DURATION        : 00:02:55.360000000
        NUMBER_OF_FRAMES: 8221
        NUMBER_OF_BYTES : 4255306
        _STATISTICS_WRITING_APP: mkvpropedit v66.0.0 ('Josie') 64-bit
        _STATISTICS_WRITING_DATE_UTC: 2025-06-30 08:16:22
        encoder         : Lavc61.19.100 pcm_s16le
frame=  114 fps=0.0 q=-0.0 size=N/A time=00:00:04.75 bitrate=N/A speed=9.24x    frame=  270 fps=263 q=-0.0 size=N/A time=00:00:11.26 bitrate=N/A speed=  11x    frame=  466 fps=303 q=-0.0 size=N/A time=00:00:19.43 bitrate=N/A speed=12.6x    frame=  707 fps=343 q=-0.0 size=N/A time=00:00:29.48 bitrate=N/A speed=14.3x    frame=  968 fps=376 q=-0.0 size=N/A time=00:00:40.37 bitrate=N/A speed=15.7x    frame= 1199 fps=388 q=-0.0 size=N/A time=00:00:50.00 bitrate=N/A speed=16.2x    frame= 1439 fps=400 q=-0.0 size=N/A time=00:01:00.01 bitrate=N/A speed=16.7x    frame= 1681 fps=408 q=-0.0 size=N/A time=00:01:10.11 bitrate=N/A speed=  17x    frame= 1925 fps=415 q=-0.0 size=N/A time=00:01:20.28 bitrate=N/A speed=17.3x    frame= 2175 fps=422 q=-0.0 size=N/A time=00:01:30.71 bitrate=N/A speed=17.6x    frame= 2400 fps=423 q=-0.0 size=N/A time=00:01:40.10 bitrate=N/A speed=17.7x    frame= 2611 fps=423 q=-0.0 size=N/A time=00:01:48.90 bitrate=N/A speed=17.6x    frame= 2833 fps=423 q=-0.0 size=N/A time=00:01:58.15 bitrate=N/A speed=17.6x    frame= 3052 fps=423 q=-0.0 size=N/A time=00:02:07.29 bitrate=N/A speed=17.6x    frame= 3255 fps=421 q=-0.0 size=N/A time=00:02:15.76 bitrate=N/A speed=17.6x    frame= 3474 fps=421 q=-0.0 size=N/A time=00:02:24.89 bitrate=N/A speed=17.6x    frame= 3680 fps=420 q=-0.0 size=N/A time=00:02:33.48 bitrate=N/A speed=17.5x    frame= 3891 fps=419 q=-0.0 size=N/A time=00:02:42.28 bitrate=N/A speed=17.5x    frame= 4099 fps=419 q=-0.0 size=N/A time=00:02:50.96 bitrate=N/A speed=17.5x    [Parsed_ssim_10 @ 000002d80ead7f00] SSIM Y:0.994974 (22.987806) U:0.994143 (22.323576) V:0.994848 (22.879938) All:0.994815 (22.852125)
[out#0/null @ 000002d80e65fa00] video:1805KiB audio:32884KiB subtitle:0KiB other streams:0KiB global headers:0KiB muxing overhead: unknown
frame= 4201 fps=421 q=-0.0 Lsize=N/A time=00:02:55.21 bitrate=N/A speed=17.5x    
